<?xml version="1.0" encoding="UTF-8" standalone="no"?>
<svg
   xmlns:dc="http://purl.org/dc/elements/1.1/"
   xmlns:cc="http://creativecommons.org/ns#"
   xmlns:rdf="http://www.w3.org/1999/02/22-rdf-syntax-ns#"
   xmlns:svg="http://www.w3.org/2000/svg"
   xmlns="http://www.w3.org/2000/svg"
   xmlns:inkscape="http://www.inkscape.org/namespaces/inkscape"
   version="1.1"
   width="120"
   height="120"
   id="svg2"
   xml:space="preserve">
  <metadata id="metadata8">
    <rdf:RDF>
      <cc:Work rdf:about="">
        <dc:format>image/svg+xml</dc:format>
        <dc:type rdf:resource="http://purl.org/dc/dcmitype/StillImage" />
      </cc:Work>
    </rdf:RDF>
  </metadata>
  <defs id="defs6">
    <clipPath id="clipPath114">
      <path d="M 0,150 660,150 660,0 0,0 0,150 z"
            inkscape:connector-curvature="0"
            id="path116" />
    </clipPath>
    <clipPath id="clipPath162">
      <path d="M 0,150 660,150 660,0 0,0 0,150 z"
            inkscape:connector-curvature="0"
            id="path164" />
    </clipPath>
  </defs>
  <g id="g10" transform="matrix(1.25,0,0,-1.25,0,187.5) translate(-32,22.5)">
    <path id="path12"
          inkscape:connector-curvature="0"
          d="M 0,0 330,0 330,150 0,150 0,0 z"
          style="fill:none;fill-opacity:1;fill-rule:nonzero;stroke:none" />
    <g id="g14" transform="translate(89.4268,98.3438)">
      <path id="path16"
            d="M 0,0 -18.35,0 -9.16,-15.824 0,0 z"
            inkscape:connector-curvature="0"
            style="fill:#63c4b1;fill-opacity:1;fill-rule:nonzero;stroke:none" />
    </g>
    <g id="g18" transform="translate(69.2861,97.3203)">
      <path id="path20"
            d="m 0,0 -9.166,-15.852 18.354,0 L 0,0 z"
            inkscape:connector-curvature="0"
            style="fill:#63c4b1;fill-opacity:1;fill-rule:nonzero;stroke:none" />
    </g>
    <g id="g22" transform="translate(78.4736,79.4082)">
      <path
         d="M 0,0 -18.354,0 -9.188,-15.863 0,0 z"
         inkscape:connector-curvature="0"
         id="path24"
         style="fill:#63c4b1;fill-opacity:1;fill-rule:nonzero;stroke:none" />
    </g>
    <g id="g26" transform="translate(58.3584,78.3828)">
      <path
         d="m 0,0 -9.219,-15.848 18.381,0 L 0,0 z"
         inkscape:connector-curvature="0"
         id="path28"
         style="fill:#63c4b1;fill-opacity:1;fill-rule:nonzero;stroke:none" />
    </g>
    <g transform="translate(91.1904,97.3203)" id="g30">
      <path
         d="m 0,0 -9.158,-15.852 18.351,0 L 0,0 z"
         inkscape:connector-curvature="0"
         id="path32"
         style="fill:#63c4b1;fill-opacity:1;fill-rule:nonzero;stroke:none" />
    </g>
    <g transform="translate(100.3838,79.4082)" id="g34">
      <path
         d="M 0,0 -18.352,0 -9.193,-15.863 0,0 z"
         inkscape:connector-curvature="0"
         id="path36"
         style="fill:#63c4b1;fill-opacity:1;fill-rule:nonzero;stroke:none" />
    </g>
    <g
       transform="translate(80.2666,116.2793)"
       id="g38"><path
         d="m 0,0 -9.189,-15.875 18.349,0 L 0,0 z"
         inkscape:connector-curvature="0"
         id="path40"
         style="fill:#63c4b1;fill-opacity:1;fill-rule:nonzero;stroke:none" /></g><g
       transform="translate(67.5205,60.4707)"
       id="g42"><path
         d="M 0,0 -18.381,0 -9.162,-15.967 0,0 z"
         inkscape:connector-curvature="0"
         id="path44"
         style="fill:#63c4b1;fill-opacity:1;fill-rule:nonzero;stroke:none" /></g><g
       transform="translate(102.1475,78.3828)"
       id="g46"><path
         d="m 0,0 -9.186,-15.848 18.375,0 L 0,0 z"
         inkscape:connector-curvature="0"
         id="path48"
         style="fill:#63c4b1;fill-opacity:1;fill-rule:nonzero;stroke:none" /></g><g
       transform="translate(111.3369,60.4707)"
       id="g50"><path
         d="M 0,0 -18.375,0 -9.189,-15.967 0,0 z"
         inkscape:connector-curvature="0"
         id="path52"
         style="fill:#63c4b1;fill-opacity:1;fill-rule:nonzero;stroke:none" /></g><g
       transform="translate(80.2666,78.3828)"
       id="g54"><path
         d="m 0,0 -9.189,-15.848 18.349,0 L 0,0 z"
         inkscape:connector-curvature="0"
         id="path56"
         style="fill:#ffffff;fill-opacity:1;fill-rule:nonzero;stroke:none" /></g>
      <g transform="translate(67.5205,98.3438)" id="g58">
        <path
         d="M 0,0 -18.381,0 -9.162,-15.824 0,0 z"
         inkscape:connector-curvature="0"
         id="path60"
         style="fill:#ffffff;fill-opacity:1;fill-rule:nonzero;stroke:none" />
      </g>
      <g
       transform="translate(38.2119,81.4688)"
       id="g62"><path
         d="M 0,0 18.348,0 9.162,15.852"
         inkscape:connector-curvature="0"
         id="path64"
         style="fill:#ffffff;fill-opacity:1;fill-rule:nonzero;stroke:none" /></g><g
       transform="translate(47.374,63.5449)"
       id="g66"><path
         d="m 0,0 9.186,15.863 -18.348,0"
         inkscape:connector-curvature="0"
         id="path68"
         style="fill:#ffffff;fill-opacity:1;fill-rule:nonzero;stroke:none" /></g><g
       transform="translate(113.0986,97.3203)"
       id="g70"><path
         d="m 0,0 -9.156,-15.852 18.345,0 L 0,0 z"
         inkscape:connector-curvature="0"
         id="path72"
         style="fill:#ffffff;fill-opacity:1;fill-rule:nonzero;stroke:none" /></g><g
       transform="translate(122.2881,79.4082)"
       id="g74"><path
         d="M 0,0 -18.346,0 -9.189,-15.863 0,0 z"
         inkscape:connector-curvature="0"
         id="path76"
         style="fill:#ffffff;fill-opacity:1;fill-rule:nonzero;stroke:none" /></g><g
       transform="translate(100.3838,117.3066)"
       id="g78"><path
         d="M 0,0 -18.352,0 -9.193,-15.834 0,0 z"
         inkscape:connector-curvature="0"
         id="path80"
         style="fill:#ffffff;fill-opacity:1;fill-rule:nonzero;stroke:none" /></g><g
       transform="translate(89.4268,60.4707)"
       id="g82"><path
         d="M 0,0 -18.379,0 -9.16,-15.967 0,0 z"
         inkscape:connector-curvature="0"
         id="path84"
         style="fill:#ffffff;fill-opacity:1;fill-rule:nonzero;stroke:none" /></g><g
       transform="translate(91.1904,59.4492)"
       id="g86"><path
         d="m 0,0 -9.158,-15.99 18.351,0 L 0,0 z"
         inkscape:connector-curvature="0"
         id="path88"
         style="fill:#ffffff;fill-opacity:1;fill-rule:nonzero;stroke:none" /></g><g
       transform="translate(78.4736,117.3066)"
       id="g90"><path
         d="M 0,0 -18.354,0 -9.188,-15.834 0,0 z"
         inkscape:connector-curvature="0"
         id="path92"
         style="fill:#ffffff;fill-opacity:1;fill-rule:nonzero;stroke:none" /></g><g
       transform="translate(58.3584,116.2793)"
       id="g94"><path
         d="m 0,0 -9.219,-15.875 18.381,0 L 0,0 z"
         inkscape:connector-curvature="0"
         id="path96"
         style="fill:#ffffff;fill-opacity:1;fill-rule:nonzero;stroke:none" /></g><g
       transform="translate(102.1475,116.2793)"
       id="g98"><path
         d="m 0,0 -9.186,-15.875 18.375,0 L 0,0 z"
         inkscape:connector-curvature="0"
         id="path100"
         style="fill:#ffffff;fill-opacity:1;fill-rule:nonzero;stroke:none" /></g>
    <g transform="translate(111.3369,98.3438)" id="g102">
      <path
         d="M 0,0 -18.375,0 -9.189,-15.824 0,0 z"
         inkscape:connector-curvature="0"
         id="path104"
         style="fill:#ffffff;fill-opacity:1;fill-rule:nonzero;stroke:none" />
    </g>
    <g transform="translate(69.2861,59.4492)" id="g106">
      <path
         d="m 0,0 -9.166,-15.99 18.354,0 L 0,0 z"
         inkscape:connector-curvature="0"
         id="path108"
         style="fill:#ffffff;fill-opacity:1;fill-rule:nonzero;stroke:none" />
    </g>
  </g>
</svg>
